<svg id="图层_1" data-name="图层 1" xmlns="http://www.w3.org/2000/svg" viewBox="0 0 326.71 49.39"><defs><style>.cls-1,.cls-2{fill:#ea3223;}.cls-1{fill-rule:evenodd;}.cls-3{font-size:28px;font-family:Silom;}.cls-3,.cls-4,.cls-5{fill:#fff;}.cls-4{font-size:25.31px;font-family:HYk2gj, HYLingXinJ;}</style></defs><title>集群logo</title><polygon class="cls-1" points="11.29 20.33 29.84 9.64 34.85 12.54 16.45 23.38 16.45 25.35 18.7 26.66 37 16.07 37 26.09 37 35.47 26.96 41.4 18.71 46.16 11.29 41.88 11.29 35.64 18.71 39.91 31.31 32.1 31.31 25.51 18.7 32.81 11.29 28.52 11.29 20.33"/><polygon class="cls-2" points="9.34 34.46 5.29 32.15 5.29 17 0.03 13.94 0.03 35.45 9.34 40.78 9.34 34.46"/><polygon class="cls-1" points="18.66 3.2 23.8 6.21 5.25 16.95 0 13.88 9.32 8.57 18.65 3.26 18.66 3.2"/><text x="-6" y="2.2"/><text class="cls-3" transform="translate(43.71 35.5)">H5S</text><text class="cls-3" transform="translate(207.71 35.5)">CLUSTER</text><text class="cls-4" transform="translate(95.76 32.29)">视频平台</text><rect class="cls-5" x="201" y="16.2" width="2" height="17"/></svg>