<?xml version="1.0" encoding="utf-8"?>
<!-- Generator: Adobe Illustrator 23.0.1, SVG Export Plug-In . SVG Version: 6.00 Build 0)  -->
<svg version="1.1" id="图层_1" xmlns="http://www.w3.org/2000/svg" xmlns:xlink="http://www.w3.org/1999/xlink" x="0px" y="0px"
	 viewBox="0 0 326.7 49.4" style="enable-background:new 0 0 326.7 49.4;" xml:space="preserve">
<style type="text/css">
	.st0{fill:#FFFFFF;}
	.st1{font-family:'Silom';}
	.st2{font-size:28px;}
	.st3{font-family:'HYk2gj';}
	.st4{font-size:25.31px;}
	.st5{fill-rule:evenodd;clip-rule:evenodd;fill:#5FBDA6;}
	.st6{fill-rule:evenodd;clip-rule:evenodd;fill:#56C2EA;}
	.st7{fill-rule:evenodd;clip-rule:evenodd;fill:#3076BB;}
</style>
<title>集群logo</title>
<text transform="matrix(1 0 0 1 43.71 35.5)" class="st0 st1 st2">H5S</text>
<text transform="matrix(1 0 0 1 207.71 35.5)" class="st0 st1 st2">CLUSTER</text>
<text transform="matrix(1 0 0 1 95.76 32.29)" class="st0 st3 st4">视频平台</text>
<rect x="201" y="16.2" class="st0" width="2" height="17"/>
<g>
	<polygon class="st5" points="11.5,20.3 30.4,9.4 35.6,12.3 16.8,23.4 16.8,25.4 19.1,26.7 37.7,16 37.7,26.2 37.7,35.7 27.5,41.8 
		19.1,46.6 11.5,42.3 11.5,35.9 19.1,40.3 31.9,32.3 31.9,25.6 19.1,33 11.5,28.6 	"/>
	<polygon class="st6" points="9.5,34.7 5.4,32.3 5.4,16.9 0.1,13.8 0.1,35.7 9.5,41.1 	"/>
	<polygon class="st7" points="19,2.8 24.3,5.8 5.4,16.9 0,13.8 9.5,8.3 19,2.8 	"/>
</g>
</svg>
